<svg width="109" height="35" viewBox="0 0 109 35" fill="none" xmlns="http://www.w3.org/2000/svg">
<path d="M19.8373 15.688L14.3653 34.408H10.9573C9.45331 34.408 8.36531 33.32 7.69331 31.144L0.589313 7.192H7.69331L11.7733 26.872L17.5333 7.192H23.0533L28.2373 26.776L32.8453 7.192H38.9893L30.8773 34.408H27.4213C25.9493 34.408 24.8773 33.224 24.2053 30.856L19.8373 15.688ZM55.0779 14.728C55.0779 14.216 54.9499 13.768 54.6939 13.384C54.5339 13.192 54.3739 13.016 54.2139 12.856C54.0539 12.664 53.8779 12.488 53.6859 12.328V12.376C52.7899 11.832 51.2699 11.56 49.1259 11.56C46.5019 11.56 44.1819 11.992 42.1659 12.856L40.5339 8.632C43.4139 7.224 46.7259 6.552 50.4699 6.616C54.0859 6.648 56.6939 7.4 58.2939 8.872C59.8939 10.376 60.7419 12.792 60.8379 16.12V34.216H50.5659C48.1019 34.216 46.2299 34.072 44.9499 33.784C43.6379 33.496 42.5499 32.968 41.6859 32.2C40.8219 31.368 40.1819 30.456 39.7659 29.464C39.3179 28.408 39.0779 27.208 39.0459 25.864C38.9499 23.56 39.3179 21.784 40.1499 20.536C41.0459 19.192 42.1819 18.2 43.5579 17.56C44.9659 16.792 46.8379 16.296 49.1739 16.072C51.4779 15.848 53.4459 15.704 55.0779 15.64V14.728ZM55.0779 19.912C51.8459 19.976 49.3179 20.408 47.4939 21.208C45.6379 21.976 44.7099 23.304 44.7099 25.192C44.7099 26.536 45.0939 27.56 45.8619 28.264C46.5659 28.968 48.1339 29.32 50.5659 29.32H55.0779V19.912ZM71.7081 12.424V28.504C71.7081 32.696 70.5561 34.792 68.2521 34.792H67.3401C66.1561 34.792 65.5641 34.216 65.5641 33.064V8.68C67.3881 7.816 69.2281 7.288 71.0841 7.096C72.9401 6.872 74.7961 6.728 76.6521 6.664C78.1881 6.76 79.6281 6.936 80.9721 7.192C82.3481 7.416 83.5481 7.816 84.5721 8.392C85.5961 9 86.3961 9.832 86.9721 10.888C87.5801 11.944 87.8841 13.32 87.8841 15.016V28.456C87.8841 32.68 86.7321 34.792 84.4281 34.792H83.4681C82.2841 34.792 81.6921 34.216 81.6921 33.064V15.112C81.6921 14.408 81.5001 13.832 81.1161 13.384C80.7321 12.936 80.2681 12.584 79.7241 12.328C79.1801 12.072 78.5881 11.896 77.9481 11.8C77.3081 11.704 76.7321 11.64 76.2201 11.608C75.3881 11.64 74.6041 11.752 73.8681 11.944C73.1641 12.104 72.4441 12.264 71.7081 12.424ZM101.668 0.327997V7.912H106.948C107.812 7.912 108.244 8.504 108.244 9.688C108.244 11.928 107.444 13.048 105.844 13.048H101.668V26.632C101.668 27.464 101.876 28.04 102.292 28.36C102.74 28.648 103.188 28.872 103.636 29.032C104.372 29.16 105.428 29.224 106.804 29.224C107.604 29.224 108.052 30.008 108.148 31.576C108.212 32.344 108.132 32.936 107.908 33.352C107.684 33.736 107.316 34.008 106.804 34.168C106.164 34.296 105.284 34.424 104.164 34.552C103.076 34.68 102.068 34.68 101.14 34.552C100.084 34.424 99.1876 34.12 98.4516 33.64C97.7476 33.16 97.1716 32.568 96.7236 31.864C96.2756 31.192 95.9556 30.408 95.7636 29.512C95.5716 28.616 95.4756 27.656 95.4756 26.632V13.048H90.8196V7.912H95.4756V1.912L101.668 0.327997Z" fill="#FF0099"/>
</svg>
